<svg width="180" height="180" viewBox="0 0 180 180" fill="none" xmlns="http://www.w3.org/2000/svg">
<path d="M76 73C76 73 90.7222 58.2778 104 45M104 45C94.4082 54.5918 102.438 66.1623 102.438 66.1623M104 45C94.4082 54.5918 82.8377 46.5623 82.8377 46.5623" stroke="black" stroke-width="2"/>
<path d="M44.9058 112V101.92H52.4728V112H51.6678V102.704H45.7108V112H44.9058ZM58.4601 112.21C57.4567 112.21 56.6144 111.988 55.9331 111.545C55.2517 111.097 54.7384 110.479 54.3931 109.69C54.0477 108.901 53.8751 107.991 53.8751 106.96C53.8751 105.929 54.0477 105.019 54.3931 104.23C54.7384 103.441 55.2517 102.825 55.9331 102.382C56.6144 101.934 57.4567 101.71 58.4601 101.71C59.4634 101.71 60.3034 101.934 60.9801 102.382C61.6614 102.825 62.1747 103.441 62.5201 104.23C62.8654 105.019 63.0381 105.929 63.0381 106.96C63.0381 107.991 62.8654 108.901 62.5201 109.69C62.1747 110.479 61.6614 111.097 60.9801 111.545C60.3034 111.988 59.4634 112.21 58.4601 112.21ZM58.4601 111.419C59.2861 111.424 59.9744 111.237 60.5251 110.859C61.0757 110.476 61.4887 109.949 61.7641 109.277C62.0394 108.605 62.1771 107.833 62.1771 106.96C62.1771 106.087 62.0394 105.315 61.7641 104.643C61.4887 103.971 61.0757 103.446 60.5251 103.068C59.9744 102.69 59.2861 102.501 58.4601 102.501C57.6341 102.496 56.9457 102.683 56.3951 103.061C55.8491 103.439 55.4384 103.966 55.1631 104.643C54.8877 105.315 54.7454 106.087 54.7361 106.96C54.7267 107.833 54.8597 108.605 55.1351 109.277C55.4151 109.944 55.8327 110.469 56.3881 110.852C56.9434 111.23 57.6341 111.419 58.4601 111.419ZM68.4679 112.21C67.4646 112.21 66.6222 111.988 65.9409 111.545C65.2596 111.097 64.7462 110.479 64.4009 109.69C64.0556 108.901 63.8829 107.991 63.8829 106.96C63.8829 105.929 64.0556 105.019 64.4009 104.23C64.7462 103.441 65.2596 102.825 65.9409 102.382C66.6222 101.934 67.4646 101.71 68.4679 101.71C69.6392 101.71 70.5889 102.013 71.3169 102.62C72.0496 103.227 72.5466 104.039 72.8079 105.056L71.9749 105.259C71.7602 104.414 71.3589 103.745 70.7709 103.25C70.1876 102.751 69.4199 102.501 68.4679 102.501C67.6419 102.501 66.9536 102.69 66.4029 103.068C65.8569 103.446 65.4439 103.971 65.1639 104.643C64.8886 105.315 64.7486 106.087 64.7439 106.96C64.7346 107.833 64.8676 108.605 65.1429 109.277C65.4229 109.944 65.8406 110.469 66.3959 110.852C66.9512 111.23 67.6419 111.419 68.4679 111.419C69.4199 111.419 70.1876 111.169 70.7709 110.67C71.3589 110.171 71.7602 109.501 71.9749 108.661L72.8079 108.864C72.5466 109.881 72.0496 110.693 71.3169 111.3C70.5889 111.907 69.6392 112.21 68.4679 112.21ZM74.3413 112V101.92H75.0903L79.2203 110.838L83.3083 101.92H84.0853V111.986H83.2943V103.775L79.5423 112H78.8843L75.1253 103.775V112H74.3413ZM90.0695 112.21C89.0661 112.21 88.2238 111.988 87.5425 111.545C86.8611 111.097 86.3478 110.479 86.0025 109.69C85.6571 108.901 85.4845 107.991 85.4845 106.96C85.4845 105.929 85.6571 105.019 86.0025 104.23C86.3478 103.441 86.8611 102.825 87.5425 102.382C88.2238 101.934 89.0661 101.71 90.0695 101.71C91.0728 101.71 91.9128 101.934 92.5895 102.382C93.2708 102.825 93.7841 103.441 94.1295 104.23C94.4748 105.019 94.6475 105.929 94.6475 106.96C94.6475 107.991 94.4748 108.901 94.1295 109.69C93.7841 110.479 93.2708 111.097 92.5895 111.545C91.9128 111.988 91.0728 112.21 90.0695 112.21ZM90.0695 111.419C90.8955 111.424 91.5838 111.237 92.1345 110.859C92.6851 110.476 93.0981 109.949 93.3735 109.277C93.6488 108.605 93.7865 107.833 93.7865 106.96C93.7865 106.087 93.6488 105.315 93.3735 104.643C93.0981 103.971 92.6851 103.446 92.1345 103.068C91.5838 102.69 90.8955 102.501 90.0695 102.501C89.2435 102.496 88.5551 102.683 88.0045 103.061C87.4585 103.439 87.0478 103.966 86.7725 104.643C86.4971 105.315 86.3548 106.087 86.3455 106.96C86.3361 107.833 86.4691 108.605 86.7445 109.277C87.0245 109.944 87.4421 110.469 87.9975 110.852C88.5528 111.23 89.2435 111.419 90.0695 111.419ZM98.5508 112V102.704H94.9388V101.92H102.968V102.704H99.3558V112H98.5508ZM104.091 112V101.92H107.892C107.99 101.92 108.095 101.925 108.207 101.934C108.324 101.939 108.445 101.953 108.571 101.976C109.075 102.055 109.507 102.237 109.866 102.522C110.23 102.802 110.508 103.157 110.699 103.586C110.891 104.011 110.986 104.48 110.986 104.993C110.986 105.511 110.891 105.985 110.699 106.414C110.508 106.839 110.23 107.193 109.866 107.478C109.507 107.758 109.075 107.938 108.571 108.017C108.445 108.036 108.324 108.05 108.207 108.059C108.095 108.068 107.99 108.073 107.892 108.073H104.896V112H104.091ZM104.896 107.282H107.878C107.962 107.282 108.058 107.277 108.165 107.268C108.277 107.259 108.389 107.245 108.501 107.226C108.865 107.151 109.169 107.004 109.411 106.785C109.654 106.561 109.836 106.293 109.957 105.98C110.079 105.667 110.139 105.338 110.139 104.993C110.139 104.648 110.079 104.321 109.957 104.013C109.836 103.7 109.654 103.434 109.411 103.215C109.169 102.991 108.865 102.842 108.501 102.767C108.389 102.744 108.277 102.727 108.165 102.718C108.058 102.709 107.962 102.704 107.878 102.704H104.896V107.282ZM112.39 112V101.92H118.62V102.704H113.195V106.533H117.78V107.317H113.195V111.216H118.62V112H112.39ZM123.078 112V102.704H119.466V101.92H127.495V102.704H123.883V112H123.078ZM128.619 112V101.92H129.424V105.847H132.42C132.518 105.847 132.623 105.852 132.735 105.861C132.847 105.866 132.966 105.88 133.092 105.903C133.596 105.982 134.027 106.164 134.387 106.449C134.751 106.729 135.028 107.084 135.22 107.513C135.416 107.938 135.514 108.409 135.514 108.927C135.514 109.44 135.418 109.912 135.227 110.341C135.035 110.766 134.758 111.12 134.394 111.405C134.034 111.685 133.6 111.865 133.092 111.944C132.966 111.963 132.847 111.977 132.735 111.986C132.623 111.995 132.518 112 132.42 112H128.619ZM129.424 111.216H132.406C132.485 111.216 132.581 111.211 132.693 111.202C132.805 111.193 132.914 111.176 133.022 111.153C133.39 111.078 133.696 110.931 133.939 110.712C134.181 110.488 134.363 110.222 134.485 109.914C134.606 109.601 134.667 109.272 134.667 108.927C134.667 108.582 134.606 108.253 134.485 107.94C134.363 107.627 134.181 107.361 133.939 107.142C133.696 106.918 133.39 106.769 133.022 106.694C132.914 106.671 132.805 106.657 132.693 106.652C132.581 106.643 132.485 106.638 132.406 106.638H129.424V111.216ZM59.5894 131V120.92H67.1564V131H66.3514V121.704H60.3944V131H59.5894ZM69.1187 131V120.92H72.9197C73.0177 120.92 73.1227 120.925 73.2347 120.934C73.3513 120.939 73.4727 120.953 73.5987 120.976C74.1027 121.055 74.5343 121.237 74.8937 121.522C75.2577 121.802 75.5353 122.157 75.7267 122.586C75.918 123.011 76.0137 123.48 76.0137 123.993C76.0137 124.511 75.918 124.985 75.7267 125.414C75.5353 125.839 75.2577 126.193 74.8937 126.478C74.5343 126.758 74.1027 126.938 73.5987 127.017C73.4727 127.036 73.3513 127.05 73.2347 127.059C73.1227 127.068 73.0177 127.073 72.9197 127.073H69.9237V131H69.1187ZM69.9237 126.282H72.9057C72.9897 126.282 73.0853 126.277 73.1927 126.268C73.3047 126.259 73.4167 126.245 73.5287 126.226C73.8927 126.151 74.196 126.004 74.4387 125.785C74.6813 125.561 74.8633 125.293 74.9847 124.98C75.106 124.667 75.1667 124.338 75.1667 123.993C75.1667 123.648 75.106 123.321 74.9847 123.013C74.8633 122.7 74.6813 122.434 74.4387 122.215C74.196 121.991 73.8927 121.842 73.5287 121.767C73.4167 121.744 73.3047 121.727 73.1927 121.718C73.0853 121.709 72.9897 121.704 72.9057 121.704H69.9237V126.282ZM81.4425 131.21C80.4392 131.21 79.5968 130.988 78.9155 130.545C78.2342 130.097 77.7208 129.479 77.3755 128.69C77.0302 127.901 76.8575 126.991 76.8575 125.96C76.8575 124.929 77.0302 124.019 77.3755 123.23C77.7208 122.441 78.2342 121.825 78.9155 121.382C79.5968 120.934 80.4392 120.71 81.4425 120.71C82.4458 120.71 83.2858 120.934 83.9625 121.382C84.6438 121.825 85.1572 122.441 85.5025 123.23C85.8478 124.019 86.0205 124.929 86.0205 125.96C86.0205 126.991 85.8478 127.901 85.5025 128.69C85.1572 129.479 84.6438 130.097 83.9625 130.545C83.2858 130.988 82.4458 131.21 81.4425 131.21ZM81.4425 130.419C82.2685 130.424 82.9568 130.237 83.5075 129.859C84.0582 129.476 84.4712 128.949 84.7465 128.277C85.0218 127.605 85.1595 126.833 85.1595 125.96C85.1595 125.087 85.0218 124.315 84.7465 123.643C84.4712 122.971 84.0582 122.446 83.5075 122.068C82.9568 121.69 82.2685 121.501 81.4425 121.501C80.6165 121.496 79.9282 121.683 79.3775 122.061C78.8315 122.439 78.4208 122.966 78.1455 123.643C77.8702 124.315 77.7278 125.087 77.7185 125.96C77.7092 126.833 77.8422 127.605 78.1175 128.277C78.3975 128.944 78.8152 129.469 79.3705 129.852C79.9258 130.23 80.6165 130.419 81.4425 130.419ZM87.4253 131V120.92H93.6553V121.704H88.2303V125.533H92.8153V126.317H88.2303V130.216H93.6553V131H87.4253ZM95.3413 131V120.92H96.1463V125.708L100.941 120.92H102.005L97.1823 125.764L102.425 131H101.347L96.1463 125.848V131H95.3413ZM106.18 131V121.704H102.568V120.92H110.597V121.704H106.985V131H106.18ZM111.72 131V120.92H112.525V124.847H115.521C115.619 124.847 115.724 124.852 115.836 124.861C115.948 124.866 116.067 124.88 116.193 124.903C116.697 124.982 117.129 125.164 117.488 125.449C117.852 125.729 118.13 126.084 118.321 126.513C118.517 126.938 118.615 127.409 118.615 127.927C118.615 128.44 118.52 128.912 118.328 129.341C118.137 129.766 117.859 130.12 117.495 130.405C117.136 130.685 116.702 130.865 116.193 130.944C116.067 130.963 115.948 130.977 115.836 130.986C115.724 130.995 115.619 131 115.521 131H111.72ZM112.525 130.216H115.507C115.587 130.216 115.682 130.211 115.794 130.202C115.906 130.193 116.016 130.176 116.123 130.153C116.492 130.078 116.798 129.931 117.04 129.712C117.283 129.488 117.465 129.222 117.586 128.914C117.708 128.601 117.768 128.272 117.768 127.927C117.768 127.582 117.708 127.253 117.586 126.94C117.465 126.627 117.283 126.361 117.04 126.142C116.798 125.918 116.492 125.769 116.123 125.694C116.016 125.671 115.906 125.657 115.794 125.652C115.682 125.643 115.587 125.638 115.507 125.638H112.525V130.216ZM119.595 131V120.92H120.4V131H119.595Z" fill="black"/>
<rect x="0.5" y="0.5" width="179" height="179" rx="89.5" stroke="black" stroke-opacity="0.2"/>
</svg>
