<svg width="180" height="180" viewBox="0 0 180 180" fill="none" xmlns="http://www.w3.org/2000/svg">
<path d="M76 73C76 73 90.7222 58.2778 104 45M104 45C94.4082 54.5918 102.438 66.1623 102.438 66.1623M104 45C94.4082 54.5918 82.8377 46.5623 82.8377 46.5623" stroke="black" stroke-width="2"/>
<path d="M58.6993 112.21C57.696 112.21 56.8537 111.988 56.1723 111.545C55.491 111.097 54.9777 110.479 54.6323 109.69C54.287 108.901 54.1143 107.991 54.1143 106.96C54.1143 105.929 54.287 105.019 54.6323 104.23C54.9777 103.441 55.491 102.825 56.1723 102.382C56.8537 101.934 57.696 101.71 58.6993 101.71C59.8707 101.71 60.8203 102.013 61.5483 102.62C62.281 103.227 62.778 104.039 63.0393 105.056L62.2063 105.259C61.9917 104.414 61.5903 103.745 61.0023 103.25C60.419 102.751 59.6513 102.501 58.6993 102.501C57.8733 102.501 57.185 102.69 56.6343 103.068C56.0883 103.446 55.6753 103.971 55.3953 104.643C55.12 105.315 54.98 106.087 54.9753 106.96C54.966 107.833 55.099 108.605 55.3743 109.277C55.6543 109.944 56.072 110.469 56.6273 110.852C57.1827 111.23 57.8733 111.419 58.6993 111.419C59.6513 111.419 60.419 111.169 61.0023 110.67C61.5903 110.171 61.9917 109.501 62.2063 108.661L63.0393 108.864C62.778 109.881 62.281 110.693 61.5483 111.3C60.8203 111.907 59.8707 112.21 58.6993 112.21ZM64.5728 112V101.92H65.3218L69.4518 110.838L73.5398 101.92H74.3168V111.986H73.5258V103.775L69.7738 112H69.1158L65.3568 103.775V112H64.5728ZM80.3009 112.21C79.2976 112.21 78.4552 111.988 77.7739 111.545C77.0926 111.097 76.5792 110.479 76.2339 109.69C75.8886 108.901 75.7159 107.991 75.7159 106.96C75.7159 105.929 75.8886 105.019 76.2339 104.23C76.5792 103.441 77.0926 102.825 77.7739 102.382C78.4552 101.934 79.2976 101.71 80.3009 101.71C81.3042 101.71 82.1442 101.934 82.8209 102.382C83.5022 102.825 84.0156 103.441 84.3609 104.23C84.7062 105.019 84.8789 105.929 84.8789 106.96C84.8789 107.991 84.7062 108.901 84.3609 109.69C84.0156 110.479 83.5022 111.097 82.8209 111.545C82.1442 111.988 81.3042 112.21 80.3009 112.21ZM80.3009 111.419C81.1269 111.424 81.8152 111.237 82.3659 110.859C82.9166 110.476 83.3296 109.949 83.6049 109.277C83.8802 108.605 84.0179 107.833 84.0179 106.96C84.0179 106.087 83.8802 105.315 83.6049 104.643C83.3296 103.971 82.9166 103.446 82.3659 103.068C81.8152 102.69 81.1269 102.501 80.3009 102.501C79.4749 102.496 78.7866 102.683 78.2359 103.061C77.6899 103.439 77.2792 103.966 77.0039 104.643C76.7286 105.315 76.5862 106.087 76.5769 106.96C76.5676 107.833 76.7006 108.605 76.9759 109.277C77.2559 109.944 77.6736 110.469 78.2289 110.852C78.7842 111.23 79.4749 111.419 80.3009 111.419ZM88.7823 112V102.704H85.1703V101.92H93.1993V102.704H89.5873V112H88.7823ZM94.3228 112V101.92H98.1238C98.2218 101.92 98.3268 101.925 98.4388 101.934C98.5554 101.939 98.6768 101.953 98.8028 101.976C99.3068 102.055 99.7384 102.237 100.098 102.522C100.462 102.802 100.739 103.157 100.931 103.586C101.122 104.011 101.218 104.48 101.218 104.993C101.218 105.511 101.122 105.985 100.931 106.414C100.739 106.839 100.462 107.193 100.098 107.478C99.7384 107.758 99.3068 107.938 98.8028 108.017C98.6768 108.036 98.5554 108.05 98.4388 108.059C98.3268 108.068 98.2218 108.073 98.1238 108.073H95.1278V112H94.3228ZM95.1278 107.282H98.1098C98.1938 107.282 98.2894 107.277 98.3968 107.268C98.5088 107.259 98.6208 107.245 98.7328 107.226C99.0968 107.151 99.4001 107.004 99.6428 106.785C99.8854 106.561 100.067 106.293 100.189 105.98C100.31 105.667 100.371 105.338 100.371 104.993C100.371 104.648 100.31 104.321 100.189 104.013C100.067 103.7 99.8854 103.434 99.6428 103.215C99.4001 102.991 99.0968 102.842 98.7328 102.767C98.6208 102.744 98.5088 102.727 98.3968 102.718C98.2894 102.709 98.1938 102.704 98.1098 102.704H95.1278V107.282ZM102.622 112V101.92H108.852V102.704H103.427V106.533H108.012V107.317H103.427V111.216H108.852V112H102.622ZM113.31 112V102.704H109.698V101.92H117.727V102.704H114.115V112H113.31ZM118.85 112V101.92H119.655V105.847H122.651C122.749 105.847 122.854 105.852 122.966 105.861C123.078 105.866 123.197 105.88 123.323 105.903C123.827 105.982 124.259 106.164 124.618 106.449C124.982 106.729 125.26 107.084 125.451 107.513C125.647 107.938 125.745 108.409 125.745 108.927C125.745 109.44 125.649 109.912 125.458 110.341C125.267 110.766 124.989 111.12 124.625 111.405C124.266 111.685 123.832 111.865 123.323 111.944C123.197 111.963 123.078 111.977 122.966 111.986C122.854 111.995 122.749 112 122.651 112H118.85ZM119.655 111.216H122.637C122.716 111.216 122.812 111.211 122.924 111.202C123.036 111.193 123.146 111.176 123.253 111.153C123.622 111.078 123.927 110.931 124.17 110.712C124.413 110.488 124.595 110.222 124.716 109.914C124.837 109.601 124.898 109.272 124.898 108.927C124.898 108.582 124.837 108.253 124.716 107.94C124.595 107.627 124.413 107.361 124.17 107.142C123.927 106.918 123.622 106.769 123.253 106.694C123.146 106.671 123.036 106.657 122.924 106.652C122.812 106.643 122.716 106.638 122.637 106.638H119.655V111.216ZM64.7095 131V120.92H68.5105C68.6085 120.92 68.7135 120.925 68.8255 120.934C68.9422 120.939 69.0635 120.953 69.1895 120.976C69.6935 121.055 70.1252 121.237 70.4845 121.522C70.8485 121.802 71.1262 122.157 71.3175 122.586C71.5088 123.011 71.6045 123.48 71.6045 123.993C71.6045 124.511 71.5088 124.985 71.3175 125.414C71.1262 125.839 70.8485 126.193 70.4845 126.478C70.1252 126.758 69.6935 126.938 69.1895 127.017C69.0635 127.036 68.9422 127.05 68.8255 127.059C68.7135 127.068 68.6085 127.073 68.5105 127.073H65.5145V131H64.7095ZM65.5145 126.282H68.4965C68.5805 126.282 68.6762 126.277 68.7835 126.268C68.8955 126.259 69.0075 126.245 69.1195 126.226C69.4835 126.151 69.7868 126.004 70.0295 125.785C70.2722 125.561 70.4542 125.293 70.5755 124.98C70.6968 124.667 70.7575 124.338 70.7575 123.993C70.7575 123.648 70.6968 123.321 70.5755 123.013C70.4542 122.7 70.2722 122.434 70.0295 122.215C69.7868 121.991 69.4835 121.842 69.1195 121.767C69.0075 121.744 68.8955 121.727 68.7835 121.718C68.6762 121.709 68.5805 121.704 68.4965 121.704H65.5145V126.282ZM72.1716 131L75.7416 120.92H76.7426L80.3126 131H79.4586L76.0286 121.34H76.4346L73.0256 131H72.1716ZM73.6486 128.466V127.703H78.8286V128.466H73.6486ZM84.4015 131.21C83.7248 131.21 83.1415 131.112 82.6515 130.916C82.1615 130.715 81.7601 130.452 81.4475 130.125C81.1348 129.794 80.9038 129.432 80.7545 129.04L81.5245 128.648C81.6365 128.984 81.8185 129.287 82.0705 129.558C82.3271 129.824 82.6515 130.034 83.0435 130.188C83.4401 130.342 83.9021 130.419 84.4295 130.419C84.9941 130.419 85.4748 130.33 85.8715 130.153C86.2728 129.971 86.5785 129.714 86.7885 129.383C87.0031 129.047 87.1105 128.648 87.1105 128.186C87.1105 127.696 86.9961 127.316 86.7675 127.045C86.5435 126.774 86.2378 126.583 85.8505 126.471C85.4631 126.354 85.0268 126.287 84.5415 126.268C84.2008 126.254 83.9581 126.245 83.8135 126.24C83.6688 126.231 83.5708 126.226 83.5195 126.226C83.4728 126.226 83.4285 126.226 83.3865 126.226V125.442C83.4191 125.442 83.5078 125.442 83.6525 125.442C83.7971 125.442 83.9511 125.442 84.1145 125.442C84.2825 125.437 84.4155 125.433 84.5135 125.428C85.2275 125.391 85.7828 125.197 86.1795 124.847C86.5761 124.497 86.7745 124.035 86.7745 123.461C86.7745 122.84 86.5575 122.357 86.1235 122.012C85.6941 121.667 85.1411 121.494 84.4645 121.494C83.8205 121.494 83.2861 121.65 82.8615 121.963C82.4368 122.276 82.0845 122.703 81.8045 123.244L81.0695 122.81C81.3821 122.189 81.8255 121.685 82.3995 121.298C82.9781 120.906 83.6735 120.71 84.4855 120.71C84.9055 120.71 85.3045 120.768 85.6825 120.885C86.0651 121.002 86.4011 121.174 86.6905 121.403C86.9845 121.632 87.2155 121.916 87.3835 122.257C87.5515 122.598 87.6355 122.994 87.6355 123.447C87.6355 124.021 87.5025 124.516 87.2365 124.931C86.9751 125.342 86.6461 125.643 86.2495 125.834C86.7815 125.983 87.2015 126.256 87.5095 126.653C87.8175 127.045 87.9715 127.563 87.9715 128.207C87.9715 128.814 87.8268 129.343 87.5375 129.796C87.2528 130.244 86.8421 130.592 86.3055 130.839C85.7735 131.086 85.1388 131.21 84.4015 131.21ZM88.9462 132.68V130.216C89.3569 130.216 89.6836 130.111 89.9262 129.901C90.1689 129.691 90.3532 129.413 90.4792 129.068C90.6052 128.718 90.6986 128.333 90.7592 127.913C90.8246 127.493 90.8782 127.071 90.9202 126.646C90.9902 126.011 91.0462 125.4 91.0882 124.812C91.1302 124.224 91.1652 123.617 91.1932 122.992C91.2259 122.362 91.2609 121.671 91.2982 120.92H97.3952V130.216H98.1092V132.68H97.2972V131H89.7512V132.68H88.9462ZM90.6892 130.216H96.5902V121.704H92.0682C92.0402 122.297 92.0099 122.88 91.9772 123.454C91.9492 124.023 91.9142 124.597 91.8722 125.176C91.8302 125.75 91.7789 126.343 91.7182 126.954C91.6622 127.5 91.5969 127.985 91.5222 128.41C91.4522 128.83 91.3519 129.192 91.2212 129.495C91.0906 129.794 90.9132 130.034 90.6892 130.216ZM99.6548 131V120.92H105.885V121.704H100.46V125.533H105.045V126.317H100.46V130.216H105.885V131H99.6548ZM106.871 131V130.244C107.141 130.277 107.361 130.272 107.529 130.23C107.701 130.183 107.841 130.078 107.949 129.915C108.056 129.752 108.147 129.504 108.222 129.173C108.301 128.842 108.38 128.401 108.46 127.85C108.544 127.309 108.616 126.779 108.677 126.261C108.737 125.738 108.791 125.204 108.838 124.658C108.884 124.107 108.926 123.526 108.964 122.915C109.001 122.304 109.034 121.639 109.062 120.92H115.292V131H114.487V121.704H109.867C109.834 122.245 109.801 122.78 109.769 123.307C109.736 123.83 109.699 124.357 109.657 124.889C109.615 125.421 109.563 125.967 109.503 126.527C109.447 127.082 109.372 127.668 109.279 128.284C109.213 128.723 109.134 129.133 109.041 129.516C108.952 129.894 108.824 130.216 108.656 130.482C108.488 130.748 108.261 130.93 107.977 131.028C107.692 131.131 107.323 131.121 106.871 131Z" fill="black"/>
<rect x="0.5" y="0.5" width="179" height="179" rx="89.5" stroke="black" stroke-opacity="0.2"/>
</svg>
