<svg width="48" height="48" viewBox="0 0 48 48" fill="none" xmlns="http://www.w3.org/2000/svg">
<rect width="48" height="48" rx="24" fill="#1F1E1A"/>
<g clip-path="url(#clip0_130_701)">
<path fill-rule="evenodd" clip-rule="evenodd" d="M20.2209 14.8883C21.1984 14.8433 21.51 14.8333 24 14.8333C26.49 14.8333 26.8017 14.8441 27.7784 14.8883C28.755 14.9324 29.4217 15.0883 30.005 15.3141C30.6159 15.5449 31.17 15.9058 31.6284 16.3724C32.095 16.8299 32.455 17.3833 32.685 17.9949C32.9117 18.5783 33.0667 19.2449 33.1117 20.2199C33.1567 21.1991 33.1667 21.5108 33.1667 23.9999C33.1667 26.4899 33.1559 26.8016 33.1117 27.7791C33.0675 28.7541 32.9117 29.4208 32.685 30.0041C32.455 30.6158 32.0945 31.1701 31.6284 31.6283C31.17 32.0949 30.6159 32.4549 30.005 32.6849C29.4217 32.9116 28.755 33.0666 27.78 33.1116C26.8017 33.1566 26.49 33.1666 24 33.1666C21.51 33.1666 21.1984 33.1558 20.2209 33.1116C19.2459 33.0674 18.5792 32.9116 17.9959 32.6849C17.3841 32.4549 16.8299 32.0943 16.3717 31.6283C15.9054 31.1705 15.5445 30.6165 15.3142 30.0049C15.0884 29.4216 14.9334 28.7549 14.8884 27.7799C14.8434 26.8008 14.8334 26.4891 14.8334 23.9999C14.8334 21.5099 14.8442 21.1983 14.8884 20.2216C14.9325 19.2449 15.0884 18.5783 15.3142 17.9949C15.5448 17.3833 15.906 16.8293 16.3725 16.3716C16.8301 15.9053 17.3838 15.5445 17.995 15.3141C18.5784 15.0883 19.245 14.9333 20.22 14.8883H20.2209ZM27.7042 16.5383C26.7375 16.4941 26.4475 16.4849 24 16.4849C21.5525 16.4849 21.2625 16.4941 20.2959 16.5383C19.4017 16.5791 18.9167 16.7283 18.5934 16.8541C18.1659 17.0208 17.86 17.2183 17.5392 17.5391C17.2351 17.835 17.001 18.1952 16.8542 18.5933C16.7284 18.9166 16.5792 19.4016 16.5384 20.2958C16.4942 21.2624 16.485 21.5524 16.485 23.9999C16.485 26.4474 16.4942 26.7374 16.5384 27.7041C16.5792 28.5983 16.7284 29.0833 16.8542 29.4066C17.0009 29.8041 17.235 30.1649 17.5392 30.4608C17.835 30.7649 18.1959 30.9991 18.5934 31.1458C18.9167 31.2716 19.4017 31.4208 20.2959 31.4616C21.2625 31.5058 21.5517 31.5149 24 31.5149C26.4484 31.5149 26.7375 31.5058 27.7042 31.4616C28.5984 31.4208 29.0834 31.2716 29.4067 31.1458C29.8342 30.9791 30.14 30.7816 30.4609 30.4608C30.765 30.1649 30.9992 29.8041 31.1459 29.4066C31.2717 29.0833 31.4209 28.5983 31.4617 27.7041C31.5059 26.7374 31.515 26.4474 31.515 23.9999C31.515 21.5524 31.5059 21.2624 31.4617 20.2958C31.4209 19.4016 31.2717 18.9166 31.1459 18.5933C30.9792 18.1658 30.7817 17.8599 30.4609 17.5391C30.165 17.235 29.8048 17.0009 29.4067 16.8541C29.0834 16.7283 28.5984 16.5791 27.7042 16.5383ZM22.8292 26.8258C23.4831 27.0979 24.2112 27.1347 24.8891 26.9297C25.5671 26.7247 26.1529 26.2907 26.5464 25.7018C26.9399 25.1129 27.1168 24.4057 27.0467 23.7008C26.9767 22.996 26.6642 22.3374 26.1625 21.8374C25.8427 21.5178 25.456 21.2731 25.0303 21.1209C24.6046 20.9687 24.1504 20.9127 23.7005 20.9571C23.2505 21.0015 22.816 21.1451 22.4282 21.3775C22.0404 21.61 21.709 21.9255 21.4578 22.3015C21.2066 22.6774 21.0419 23.1043 20.9755 23.5516C20.9091 23.9988 20.9427 24.4552 21.0738 24.8878C21.205 25.3205 21.4304 25.7188 21.734 26.0538C22.0375 26.3889 22.4115 26.6526 22.8292 26.8258ZM20.6684 20.6683C21.1059 20.2307 21.6253 19.8837 22.197 19.6469C22.7686 19.4101 23.3813 19.2882 24 19.2882C24.6188 19.2882 25.2315 19.4101 25.8031 19.6469C26.3748 19.8837 26.8942 20.2307 27.3317 20.6683C27.7692 21.1058 28.1163 21.6252 28.353 22.1968C28.5899 22.7685 28.7117 23.3812 28.7117 23.9999C28.7117 24.6187 28.5899 25.2313 28.353 25.803C28.1163 26.3747 27.7692 26.8941 27.3317 27.3316C26.4481 28.2152 25.2496 28.7116 24 28.7116C22.7505 28.7116 21.552 28.2152 20.6684 27.3316C19.7848 26.448 19.2883 25.2495 19.2883 23.9999C19.2883 22.7503 19.7848 21.5519 20.6684 20.6683ZM29.7567 19.9899C29.8651 19.8876 29.952 19.7647 30.012 19.6282C30.072 19.4918 30.104 19.3447 30.1062 19.1957C30.1084 19.0467 30.0806 18.8987 30.0246 18.7606C29.9685 18.6225 29.8854 18.497 29.78 18.3916C29.6746 18.2862 29.5491 18.2031 29.411 18.147C29.273 18.091 29.125 18.0632 28.976 18.0654C28.8269 18.0676 28.6798 18.0996 28.5434 18.1597C28.407 18.2197 28.284 18.3065 28.1817 18.4149C27.9828 18.6258 27.8739 18.9059 27.8781 19.1957C27.8824 19.4855 27.9994 19.7623 28.2044 19.9673C28.4093 20.1723 28.6861 20.2893 28.976 20.2935C29.2658 20.2977 29.5459 20.1888 29.7567 19.9899Z" fill="white"/>
</g>
<rect x="0.5" y="0.5" width="47" height="47" rx="23.5" stroke="white" stroke-opacity="0.3"/>
<defs>
<clipPath id="clip0_130_701">
<rect width="20" height="20" fill="white" transform="translate(14 14)"/>
</clipPath>
</defs>
</svg>
