<svg width="93" height="54" viewBox="0 0 93 54" fill="none" xmlns="http://www.w3.org/2000/svg">
<path d="M13.8004 38.0001V37.7113H13.5597C13.1266 37.7113 12.7896 37.5669 12.5971 37.2782C12.3565 36.9412 12.3565 36.4599 12.549 35.9786L15.6775 28.7109H31.0792L34.2077 36.0268C34.4002 36.5081 34.4002 36.9412 34.2077 37.2782C34.0152 37.5669 33.6301 37.7113 33.197 37.7113H32.9563V38.0001H42.7749V37.7113H42.2455C41.2829 37.7113 40.1759 36.9412 39.7908 35.9786L26.1699 4.35693H25.833L23.2339 10.4214L23.1858 10.4695L12.2121 35.9786C11.827 36.9412 10.72 37.7113 9.75743 37.7113H9.27612V38.0001H13.8004ZM23.3783 10.8545L30.9348 28.374H15.8219L23.3783 10.8545Z" fill="white"/>
<path d="M38.4344 4.64572C39.397 4.64572 40.504 5.4158 40.9372 6.37841L54.51 38.0001V38.0482H54.8469L57.4941 31.9357V31.8875L61.8258 21.732L68.8529 38.0001V38.0482H69.1898L71.7888 31.9357V31.8875L82.7626 6.37841C83.1957 5.4158 84.3027 4.64572 85.2653 4.64572H85.7466V4.35693H81.1742V4.64572H81.463C81.8962 4.64572 82.2331 4.79011 82.4256 5.07889C82.6663 5.4158 82.6663 5.89711 82.4256 6.37841L71.6444 31.5025L64.6174 15.2344L68.4678 6.37841C68.8529 5.4158 69.9599 4.64572 70.9225 4.64572H71.4519V4.35693H66.8795V4.64572H67.1202C67.5533 4.64572 67.9384 4.79011 68.1309 5.07889C68.3234 5.4158 68.3234 5.89711 68.1309 6.37841L64.473 14.8494L60.8151 6.33028C60.6226 5.84898 60.6226 5.4158 60.8151 5.07889C61.0076 4.79011 61.3445 4.64572 61.7777 4.64572H62.0665V4.35693H52.2479V4.64572H52.7773C53.6918 4.64572 54.8469 5.4158 55.2319 6.37841L61.6814 21.347L57.3016 31.5025L46.4722 6.33028C46.2797 5.84898 46.2797 5.4158 46.5203 5.07889C46.7129 4.79011 47.0498 4.64572 47.4829 4.64572H47.7236V4.35693H37.9531V4.64572H38.4344Z" fill="white"/>
<path d="M0.95874 51.6087V51.4032H1.20526C1.38605 51.4032 1.523 51.3649 1.61613 51.2882C1.71474 51.206 1.79692 51.08 1.86266 50.9102L3.75266 45.7332H4.12244L6.09461 50.9102C6.16583 51.0964 6.24252 51.2252 6.3247 51.2964C6.40687 51.3676 6.53561 51.4032 6.71092 51.4032H6.91635V51.6087H4.862V51.4032H5.43722L4.89487 49.9652H2.47074L1.94483 51.4032H2.47896V51.6087H0.95874ZM2.52826 49.8008H4.83735L3.67048 46.6782L2.52826 49.8008Z" fill="white"/>
<path d="M9.25708 51.6087V51.4032H9.58578C9.68987 51.4032 9.77752 51.3676 9.84874 51.2964C9.91995 51.2252 9.95556 51.1375 9.95556 51.0334V46.4317C9.95556 46.3276 9.91995 46.24 9.84874 46.1687C9.77752 46.0975 9.68987 46.0619 9.58578 46.0619H9.25708V45.8565H11.4757V46.0619H10.7362V51.4032H12.5029C12.7987 51.4032 13.0261 51.3183 13.185 51.1485C13.3493 50.9732 13.4643 50.6883 13.5301 50.2939L13.5712 50.0474H13.7355V51.6087H9.25708Z" fill="white"/>
<path d="M16.614 51.6087V51.4032H16.9427C17.0467 51.4032 17.1344 51.3676 17.2056 51.2964C17.2768 51.2252 17.3124 51.1375 17.3124 51.0334V46.4317C17.3124 46.3276 17.2768 46.24 17.2056 46.1687C17.1344 46.0975 17.0467 46.0619 16.9427 46.0619H16.614V45.8565H18.8327V46.0619H18.0931V51.4032H19.8598C20.1557 51.4032 20.383 51.3183 20.5419 51.1485C20.7062 50.9732 20.8213 50.6883 20.887 50.2939L20.9281 50.0474H21.0924V51.6087H16.614Z" fill="white"/>
<path d="M28.5752 51.6087V51.4032H28.9039C29.008 51.4032 29.0956 51.3676 29.1668 51.2964C29.238 51.2252 29.2737 51.1375 29.2737 51.0334V46.4317C29.2737 46.3276 29.238 46.24 29.1668 46.1687C29.0956 46.0975 29.008 46.0619 28.9039 46.0619H28.5752V45.8565H33.1358V47.1713H32.9715L32.9304 46.9247C32.8811 46.6289 32.7825 46.4125 32.6346 46.2756C32.4867 46.1331 32.2703 46.0619 31.9854 46.0619H30.0543V48.4861H31.1637C31.328 48.4861 31.465 48.4313 31.5745 48.3217C31.6841 48.2121 31.7389 48.0752 31.7389 47.9108V47.7054H31.9032V49.39H31.7389V48.6504H30.0543V51.4032H30.7939V51.6087H28.5752Z" fill="white"/>
<path d="M37.2784 50.8116C37.6837 51.3156 38.1795 51.5676 38.7657 51.5676C39.3519 51.5676 39.8477 51.3156 40.253 50.8116C40.6584 50.3076 40.8611 49.6146 40.8611 48.7326C40.8611 47.8506 40.6584 47.1576 40.253 46.6536C39.8477 46.1496 39.3519 45.8976 38.7657 45.8976C38.1795 45.8976 37.6837 46.1496 37.2784 46.6536C36.873 47.1576 36.6703 47.8506 36.6703 48.7326C36.6703 49.6146 36.873 50.3076 37.2784 50.8116ZM40.8611 50.902C40.2914 51.4827 39.5929 51.773 38.7657 51.773C37.9385 51.773 37.2373 51.4827 36.662 50.902C36.0923 50.3158 35.8074 49.5927 35.8074 48.7326C35.8074 47.8725 36.0923 47.1521 36.662 46.5714C37.2373 45.9852 37.9385 45.6921 38.7657 45.6921C39.5929 45.6921 40.2914 45.9852 40.8611 46.5714C41.4364 47.1521 41.724 47.8725 41.724 48.7326C41.724 49.5927 41.4364 50.3158 40.8611 50.902Z" fill="white"/>
<path d="M44.6851 51.6087V51.4032H45.0138C45.1179 51.4032 45.2055 51.3676 45.2768 51.2964C45.348 51.2252 45.3836 51.1375 45.3836 51.0334V46.4317C45.3836 46.3276 45.348 46.24 45.2768 46.1687C45.2055 46.0975 45.1179 46.0619 45.0138 46.0619H44.6851V45.8565H47.1503C47.7913 45.8565 48.3062 46.0318 48.6952 46.3824C49.0896 46.7275 49.2869 47.1548 49.2869 47.6643C49.2869 48.0697 49.1444 48.4258 48.8595 48.7326C48.5802 49.0339 48.2295 49.2256 47.8077 49.3078V49.3489L48.9171 50.828C49.191 51.2115 49.4786 51.4032 49.7799 51.4032H50.0675V51.6087H47.931V51.4032H48.424L46.9449 49.39H46.1642V51.4032H46.9038V51.6087H44.6851ZM46.1642 49.2256H46.986C47.4023 49.2256 47.7447 49.0832 48.0132 48.7983C48.2871 48.508 48.424 48.13 48.424 47.6643C48.424 47.1822 48.2871 46.796 48.0132 46.5057C47.7447 46.2098 47.4023 46.0619 46.986 46.0619H46.1642V49.2256Z" fill="white"/>
<path d="M59.5204 51.7319H59.2739C59.0438 51.1841 58.6795 50.335 58.181 49.1845C57.6824 48.0341 57.3072 47.1576 57.0552 46.555C56.973 46.3632 56.8908 46.2345 56.8087 46.1687C56.732 46.0975 56.6087 46.0619 56.4389 46.0619H56.2334V45.8565H58.2467V46.0619H57.7126L59.6847 50.6637L60.6955 48.0587L60.0545 46.555C59.9778 46.3687 59.8984 46.24 59.8162 46.1687C59.734 46.0975 59.608 46.0619 59.4382 46.0619H59.1917V45.8565H61.7391V46.0619H61.5747C61.1365 46.0619 60.9173 46.1852 60.9173 46.4317C60.9173 46.4974 60.9721 46.6618 61.0817 46.9247L62.6841 50.6637L64.4508 46.0619H63.8345V45.8565H65.5191V46.0619H65.1904C64.8507 46.0619 64.6179 46.2263 64.4919 46.555L62.5197 51.7319H62.2732L60.8187 48.3628L59.5204 51.7319Z" fill="white"/>
<path d="M69.2976 50.8116C69.703 51.3156 70.1988 51.5676 70.785 51.5676C71.3711 51.5676 71.8669 51.3156 72.2723 50.8116C72.6777 50.3076 72.8804 49.6146 72.8804 48.7326C72.8804 47.8506 72.6777 47.1576 72.2723 46.6536C71.8669 46.1496 71.3711 45.8976 70.785 45.8976C70.1988 45.8976 69.703 46.1496 69.2976 46.6536C68.8922 47.1576 68.6895 47.8506 68.6895 48.7326C68.6895 49.6146 68.8922 50.3076 69.2976 50.8116ZM72.8804 50.902C72.3107 51.4827 71.6122 51.773 70.785 51.773C69.9577 51.773 69.2565 51.4827 68.6813 50.902C68.1116 50.3158 67.8267 49.5927 67.8267 48.7326C67.8267 47.8725 68.1116 47.1521 68.6813 46.5714C69.2565 45.9852 69.9577 45.6921 70.785 45.6921C71.6122 45.6921 72.3107 45.9852 72.8804 46.5714C73.4556 47.1521 73.7432 47.8725 73.7432 48.7326C73.7432 49.5927 73.4556 50.3158 72.8804 50.902Z" fill="white"/>
<path d="M78.3396 50.8116C78.745 51.3156 79.2408 51.5676 79.827 51.5676C80.4131 51.5676 80.9089 51.3156 81.3143 50.8116C81.7197 50.3076 81.9224 49.6146 81.9224 48.7326C81.9224 47.8506 81.7197 47.1576 81.3143 46.6536C80.9089 46.1496 80.4131 45.8976 79.827 45.8976C79.2408 45.8976 78.745 46.1496 78.3396 46.6536C77.9342 47.1576 77.7315 47.8506 77.7315 48.7326C77.7315 49.6146 77.9342 50.3076 78.3396 50.8116ZM81.9224 50.902C81.3527 51.4827 80.6542 51.773 79.827 51.773C78.9998 51.773 78.2985 51.4827 77.7233 50.902C77.1536 50.3158 76.8687 49.5927 76.8687 48.7326C76.8687 47.8725 77.1536 47.1521 77.7233 46.5714C78.2985 45.9852 78.9998 45.6921 79.827 45.6921C80.6542 45.6921 81.3527 45.9852 81.9224 46.5714C82.4976 47.1521 82.7852 47.8725 82.7852 48.7326C82.7852 49.5927 82.4976 50.3158 81.9224 50.902Z" fill="white"/>
<path d="M87.2254 51.4032H88.2937C88.9346 51.4032 89.4496 51.1731 89.8386 50.713C90.233 50.2473 90.4302 49.5872 90.4302 48.7326C90.4302 47.878 90.233 47.2206 89.8386 46.7604C89.4496 46.2947 88.9346 46.0619 88.2937 46.0619H87.2254V51.4032ZM85.7463 51.6087V51.4032H86.075C86.1791 51.4032 86.2667 51.3676 86.3379 51.2964C86.4092 51.2252 86.4448 51.1375 86.4448 51.0334V46.4317C86.4448 46.3276 86.4092 46.24 86.3379 46.1687C86.2667 46.0975 86.1791 46.0619 86.075 46.0619H85.7463V45.8565H88.2937C89.1921 45.8565 89.9152 46.1249 90.4631 46.6618C91.0164 47.1987 91.293 47.8889 91.293 48.7326C91.293 49.5762 91.0164 50.2665 90.4631 50.8034C89.9152 51.3402 89.1921 51.6087 88.2937 51.6087H85.7463Z" fill="white"/>
</svg>
