<svg width="93" height="54" viewBox="0 0 93 54" fill="none" xmlns="http://www.w3.org/2000/svg">
<path d="M13.8003 38V37.7112H13.5596C13.1265 37.7112 12.7896 37.5668 12.597 37.278C12.3564 36.9411 12.3564 36.4598 12.5489 35.9785L15.6774 28.7108H31.0791L34.2076 36.0267C34.4001 36.508 34.4001 36.9411 34.2076 37.278C34.0151 37.5668 33.63 37.7112 33.1969 37.7112H32.9562V38H42.7748V37.7112H42.2454C41.2828 37.7112 40.1758 36.9411 39.7907 35.9785L26.1698 4.35682H25.8329L23.2339 10.4213L23.1857 10.4694L12.212 35.9785C11.8269 36.9411 10.7199 37.7112 9.75733 37.7112H9.27603V38H13.8003ZM23.3782 10.8544L30.9347 28.3739H15.8218L23.3782 10.8544ZM38.4344 4.64561C39.397 4.64561 40.504 5.41569 40.9372 6.3783L54.51 38V38.0481H54.8469L57.4941 31.9356V31.8874L61.8258 21.7319L68.8529 38V38.0481H69.1898L71.7888 31.9356V31.8874L82.7626 6.3783C83.1957 5.41569 84.3027 4.64561 85.2653 4.64561H85.7466V4.35682H81.1743V4.64561H81.463C81.8962 4.64561 82.2331 4.79 82.4256 5.07878C82.6663 5.41569 82.6663 5.897 82.4256 6.3783L71.6444 31.5024L64.6174 15.2343L68.4678 6.3783C68.8529 5.41569 69.9599 4.64561 70.9225 4.64561H71.4519V4.35682H66.8795V4.64561H67.1202C67.5533 4.64561 67.9384 4.79 68.1309 5.07878C68.3234 5.41569 68.3234 5.897 68.1309 6.3783L64.473 14.8493L60.8151 6.33017C60.6226 5.84887 60.6226 5.41569 60.8151 5.07878C61.0076 4.79 61.3445 4.64561 61.7777 4.64561H62.0665V4.35682H52.2479V4.64561H52.7773C53.6918 4.64561 54.8469 5.41569 55.2319 6.3783L61.6814 21.3469L57.3016 31.5024L46.4722 6.33017C46.2797 5.84887 46.2797 5.41569 46.5203 5.07878C46.7129 4.79 47.0498 4.64561 47.4829 4.64561H47.7236V4.35682H37.9531V4.64561H38.4344Z" fill="black"/>
<path d="M0.958913 51.6086V51.4032H1.20543C1.38622 51.4032 1.52317 51.3649 1.6163 51.2882C1.71491 51.206 1.79709 51.08 1.86283 50.9102L3.75283 45.7332H4.12261L6.09478 50.9102C6.166 51.0964 6.2427 51.2252 6.32487 51.2964C6.40704 51.3676 6.53578 51.4032 6.71109 51.4032H6.91652V51.6086H4.86217V51.4032H5.43739L4.89504 49.9652H2.47091L1.945 51.4032H2.47913V51.6086H0.958913ZM2.52843 49.8008H4.83752L3.67065 46.6782L2.52843 49.8008ZM9.25719 51.6086V51.4032H9.58589C9.68998 51.4032 9.77763 51.3676 9.84885 51.2964C9.92006 51.2252 9.95567 51.1375 9.95567 51.0334V46.4317C9.95567 46.3276 9.92006 46.2399 9.84885 46.1687C9.77763 46.0975 9.68998 46.0619 9.58589 46.0619H9.25719V45.8565H11.4759V46.0619H10.7363V51.4032H12.5031C12.7989 51.4032 13.0262 51.3183 13.1851 51.1485C13.3495 50.9732 13.4645 50.6883 13.5302 50.2939L13.5713 50.0473H13.7357V51.6086H9.25719ZM16.614 51.6086V51.4032H16.9427C17.0468 51.4032 17.1344 51.3676 17.2057 51.2964C17.2769 51.2252 17.3125 51.1375 17.3125 51.0334V46.4317C17.3125 46.3276 17.2769 46.2399 17.2057 46.1687C17.1344 46.0975 17.0468 46.0619 16.9427 46.0619H16.614V45.8565H18.8327V46.0619H18.0931V51.4032H19.8599C20.1557 51.4032 20.383 51.3183 20.5419 51.1485C20.7063 50.9732 20.8213 50.6883 20.887 50.2939L20.9281 50.0473H21.0925V51.6086H16.614ZM28.5751 51.6086V51.4032H28.9038C29.0079 51.4032 29.0956 51.3676 29.1668 51.2964C29.238 51.2252 29.2736 51.1375 29.2736 51.0334V46.4317C29.2736 46.3276 29.238 46.2399 29.1668 46.1687C29.0956 46.0975 29.0079 46.0619 28.9038 46.0619H28.5751V45.8565H33.1358V47.1713H32.9714L32.9303 46.9247C32.881 46.6289 32.7824 46.4125 32.6345 46.2756C32.4866 46.1331 32.2702 46.0619 31.9853 46.0619H30.0543V48.486H31.1636C31.328 48.486 31.4649 48.4313 31.5745 48.3217C31.684 48.2121 31.7388 48.0752 31.7388 47.9108V47.7054H31.9032V49.3899H31.7388V48.6504H30.0543V51.4032H30.7938V51.6086H28.5751ZM37.2783 50.8116C37.6837 51.3156 38.1795 51.5676 38.7657 51.5676C39.3518 51.5676 39.8476 51.3156 40.253 50.8116C40.6584 50.3076 40.8611 49.6146 40.8611 48.7326C40.8611 47.8506 40.6584 47.1576 40.253 46.6536C39.8476 46.1496 39.3518 45.8976 38.7657 45.8976C38.1795 45.8976 37.6837 46.1496 37.2783 46.6536C36.8729 47.1576 36.6702 47.8506 36.6702 48.7326C36.6702 49.6146 36.8729 50.3076 37.2783 50.8116ZM40.8611 50.9019C40.2913 51.4826 39.5929 51.773 38.7657 51.773C37.9384 51.773 37.2372 51.4826 36.662 50.9019C36.0923 50.3158 35.8074 49.5926 35.8074 48.7326C35.8074 47.8725 36.0923 47.1521 36.662 46.5714C37.2372 45.9852 37.9384 45.6921 38.7657 45.6921C39.5929 45.6921 40.2913 45.9852 40.8611 46.5714C41.4363 47.1521 41.7239 47.8725 41.7239 48.7326C41.7239 49.5926 41.4363 50.3158 40.8611 50.9019ZM44.6851 51.6086V51.4032H45.0138C45.1178 51.4032 45.2055 51.3676 45.2767 51.2964C45.3479 51.2252 45.3835 51.1375 45.3835 51.0334V46.4317C45.3835 46.3276 45.3479 46.2399 45.2767 46.1687C45.2055 46.0975 45.1178 46.0619 45.0138 46.0619H44.6851V45.8565H47.1503C47.7912 45.8565 48.3062 46.0318 48.6951 46.3824C49.0896 46.7275 49.2868 47.1548 49.2868 47.6643C49.2868 48.0697 49.1444 48.4258 48.8595 48.7326C48.5801 49.0339 48.2295 49.2256 47.8077 49.3078V49.3489L48.917 50.828C49.1909 51.2115 49.4785 51.4032 49.7798 51.4032H50.0675V51.6086H47.9309V51.4032H48.424L46.9448 49.3899H46.1642V51.4032H46.9038V51.6086H44.6851ZM46.1642 49.2256H46.9859C47.4023 49.2256 47.7447 49.0832 48.0131 48.7983C48.287 48.5079 48.424 48.1299 48.424 47.6643C48.424 47.1822 48.287 46.796 48.0131 46.5056C47.7447 46.2098 47.4023 46.0619 46.9859 46.0619H46.1642V49.2256ZM59.5203 51.7319H59.2738C59.0437 51.1841 58.6794 50.3349 58.1809 49.1845C57.6824 48.0341 57.3071 47.1576 57.0551 46.5549C56.973 46.3632 56.8908 46.2345 56.8086 46.1687C56.7319 46.0975 56.6086 46.0619 56.4388 46.0619H56.2334V45.8565H58.2466V46.0619H57.7125L59.6847 50.6636L60.6954 48.0587L60.0545 46.5549C59.9778 46.3687 59.8983 46.2399 59.8162 46.1687C59.734 46.0975 59.608 46.0619 59.4382 46.0619H59.1916V45.8565H61.739V46.0619H61.5747C61.1364 46.0619 60.9173 46.1852 60.9173 46.4317C60.9173 46.4974 60.9721 46.6618 61.0816 46.9247L62.684 50.6636L64.4508 46.0619H63.8345V45.8565H65.519V46.0619H65.1903C64.8507 46.0619 64.6179 46.2263 64.4919 46.5549L62.5197 51.7319H62.2732L60.8187 48.3628L59.5203 51.7319ZM69.2976 50.8116C69.703 51.3156 70.1987 51.5676 70.7849 51.5676C71.3711 51.5676 71.8669 51.3156 72.2723 50.8116C72.6777 50.3076 72.8803 49.6146 72.8803 48.7326C72.8803 47.8506 72.6777 47.1576 72.2723 46.6536C71.8669 46.1496 71.3711 45.8976 70.7849 45.8976C70.1987 45.8976 69.703 46.1496 69.2976 46.6536C68.8922 47.1576 68.6895 47.8506 68.6895 48.7326C68.6895 49.6146 68.8922 50.3076 69.2976 50.8116ZM72.8803 50.9019C72.3106 51.4826 71.6121 51.773 70.7849 51.773C69.9577 51.773 69.2565 51.4826 68.6813 50.9019C68.1115 50.3158 67.8267 49.5926 67.8267 48.7326C67.8267 47.8725 68.1115 47.1521 68.6813 46.5714C69.2565 45.9852 69.9577 45.6921 70.7849 45.6921C71.6121 45.6921 72.3106 45.9852 72.8803 46.5714C73.4556 47.1521 73.7432 47.8725 73.7432 48.7326C73.7432 49.5926 73.4556 50.3158 72.8803 50.9019ZM78.3396 50.8116C78.745 51.3156 79.2408 51.5676 79.8269 51.5676C80.4131 51.5676 80.9089 51.3156 81.3143 50.8116C81.7197 50.3076 81.9224 49.6146 81.9224 48.7326C81.9224 47.8506 81.7197 47.1576 81.3143 46.6536C80.9089 46.1496 80.4131 45.8976 79.8269 45.8976C79.2408 45.8976 78.745 46.1496 78.3396 46.6536C77.9342 47.1576 77.7315 47.8506 77.7315 48.7326C77.7315 49.6146 77.9342 50.3076 78.3396 50.8116ZM81.9224 50.9019C81.3526 51.4826 80.6541 51.773 79.8269 51.773C78.9997 51.773 78.2985 51.4826 77.7233 50.9019C77.1535 50.3158 76.8687 49.5926 76.8687 48.7326C76.8687 47.8725 77.1535 47.1521 77.7233 46.5714C78.2985 45.9852 78.9997 45.6921 79.8269 45.6921C80.6541 45.6921 81.3526 45.9852 81.9224 46.5714C82.4976 47.1521 82.7852 47.8725 82.7852 48.7326C82.7852 49.5926 82.4976 50.3158 81.9224 50.9019ZM87.2255 51.4032H88.2937C88.9347 51.4032 89.4496 51.1731 89.8386 50.7129C90.233 50.2473 90.4303 49.5872 90.4303 48.7326C90.4303 47.8779 90.233 47.2206 89.8386 46.7604C89.4496 46.2947 88.9347 46.0619 88.2937 46.0619H87.2255V51.4032ZM85.7463 51.6086V51.4032H86.075C86.1791 51.4032 86.2668 51.3676 86.338 51.2964C86.4092 51.2252 86.4448 51.1375 86.4448 51.0334V46.4317C86.4448 46.3276 86.4092 46.2399 86.338 46.1687C86.2668 46.0975 86.1791 46.0619 86.075 46.0619H85.7463V45.8565H88.2937C89.1922 45.8565 89.9153 46.1249 90.4631 46.6618C91.0164 47.1986 91.2931 47.8889 91.2931 48.7326C91.2931 49.5762 91.0164 50.2665 90.4631 50.8033C89.9153 51.3402 89.1922 51.6086 88.2937 51.6086H85.7463Z" fill="black"/>
</svg>
