<svg width="48" height="48" viewBox="0 0 48 48" fill="none" xmlns="http://www.w3.org/2000/svg">
<rect width="48" height="48" rx="24" fill="#1F1E1A"/>
<g clip-path="url(#clip0_130_697)">
<path fill-rule="evenodd" clip-rule="evenodd" d="M33.5417 18.9567C33.68 18.5017 33.5417 18.1667 32.8792 18.1667H30.6917C30.135 18.1667 29.8783 18.4559 29.7392 18.7751C29.7392 18.7751 28.6267 21.4384 27.0508 23.1684C26.5408 23.6701 26.3092 23.8292 26.0308 23.8292C25.8917 23.8292 25.6825 23.6701 25.6825 23.2142V18.9567C25.6825 18.4101 25.5292 18.1667 25.0658 18.1667H21.6258C21.2783 18.1667 21.0692 18.4201 21.0692 18.6609C21.0692 19.1784 21.8575 19.2984 21.9383 20.7551V23.9201C21.9383 24.6142 21.8108 24.7401 21.5325 24.7401C20.7908 24.7401 18.9867 22.0642 17.9158 19.0026C17.7083 18.4067 17.4983 18.1667 16.9392 18.1667H14.75C14.125 18.1667 14 18.4559 14 18.7751C14 19.3434 14.7417 22.1667 17.4542 25.9009C19.2625 28.4509 21.8083 29.8334 24.1275 29.8334C25.5183 29.8334 25.69 29.5267 25.69 28.9976V27.0701C25.69 26.4559 25.8217 26.3334 26.2625 26.3334C26.5875 26.3334 27.1433 26.4934 28.4417 27.7226C29.925 29.1801 30.1692 29.8334 31.0042 29.8334H33.1917C33.8167 29.8334 34.13 29.5267 33.95 28.9201C33.7517 28.3167 33.0433 27.4409 32.1042 26.4017C31.5942 25.8101 30.8292 25.1726 30.5967 24.8534C30.2725 24.4442 30.365 24.2617 30.5967 23.8976C30.5967 23.8976 33.2633 20.2092 33.5408 18.9567H33.5417Z" fill="white"/>
</g>
<rect x="0.5" y="0.5" width="47" height="47" rx="23.5" stroke="white" stroke-opacity="0.3"/>
<defs>
<clipPath id="clip0_130_697">
<rect width="20" height="20" fill="white" transform="translate(14 14)"/>
</clipPath>
</defs>
</svg>
